<svg height="1454" width="720" xmlns="http://www.w3.org/2000/svg">
<rect height="1454" fill="#555" width="720"></rect>
<text fill="#7f7" font-family="Courier New" font-size="12" xml:space="preserve">
<tspan x="10" y="26">9 megabytes</tspan>
<tspan x="10" y="42">└─┬ retire@1.2.12 </tspan>
<tspan x="10" y="58">  ├── commander@2.5.1 </tspan>
<tspan x="10" y="74">  ├─┬ read-installed@4.0.3 </tspan>
<tspan x="10" y="90">  │ ├── debuglog@1.0.1 </tspan>
<tspan x="10" y="106">  │ ├── graceful-fs@4.1.11 </tspan>
<tspan x="10" y="122">  │ ├─┬ read-package-json@2.0.5 </tspan>
<tspan x="10" y="138">  │ │ ├─┬ glob@7.1.1 </tspan>
<tspan x="10" y="154">  │ │ │ ├── fs.realpath@1.0.0 </tspan>
<tspan x="10" y="170">  │ │ │ ├── inflight@1.0.6 </tspan>
<tspan x="10" y="186">  │ │ │ ├── inherits@2.0.3 </tspan>
<tspan x="10" y="202">  │ │ │ ├─┬ minimatch@3.0.3 </tspan>
<tspan x="10" y="218">  │ │ │ │ └─┬ brace-expansion@1.1.7 </tspan>
<tspan x="10" y="234">  │ │ │ │   ├── balanced-match@0.4.2 </tspan>
<tspan x="10" y="250">  │ │ │ │   └── concat-map@0.0.1 </tspan>
<tspan x="10" y="266">  │ │ │ └── path-is-absolute@1.0.1 </tspan>
<tspan x="10" y="282">  │ │ ├─┬ json-parse-helpfulerror@1.0.3 </tspan>
<tspan x="10" y="298">  │ │ │ └── jju@1.3.0 </tspan>
<tspan x="10" y="314">  │ │ └─┬ normalize-package-data@2.3.6 </tspan>
<tspan x="10" y="330">  │ │   ├── hosted-git-info@2.4.1 </tspan>
<tspan x="10" y="346">  │ │   ├─┬ is-builtin-module@1.0.0 </tspan>
<tspan x="10" y="362">  │ │   │ └── builtin-modules@1.1.1 </tspan>
<tspan x="10" y="378">  │ │   └─┬ validate-npm-package-license@3.0.1 </tspan>
<tspan x="10" y="394">  │ │     ├─┬ spdx-correct@1.0.2 </tspan>
<tspan x="10" y="410">  │ │     │ └── spdx-license-ids@1.2.2 </tspan>
<tspan x="10" y="426">  │ │     └── spdx-expression-parse@1.0.4 </tspan>
<tspan x="10" y="442">  │ ├─┬ readdir-scoped-modules@1.0.2 </tspan>
<tspan x="10" y="458">  │ │ ├─┬ dezalgo@1.0.3 </tspan>
<tspan x="10" y="474">  │ │ │ ├── asap@2.0.5 </tspan>
<tspan x="10" y="490">  │ │ │ └── wrappy@1.0.2 </tspan>
<tspan x="10" y="506">  │ │ └── once@1.4.0 </tspan>
<tspan x="10" y="522">  │ ├── semver@5.3.0 </tspan>
<tspan x="10" y="538">  │ ├── slide@1.1.6 </tspan>
<tspan x="10" y="554">  │ └── util-extend@1.0.3 </tspan>
<tspan x="10" y="570">  ├─┬ request@2.81.0 </tspan>
<tspan x="10" y="586">  │ ├── aws-sign2@0.6.0 </tspan>
<tspan x="10" y="602">  │ ├── aws4@1.6.0 </tspan>
<tspan x="10" y="618">  │ ├── caseless@0.12.0 </tspan>
<tspan x="10" y="634">  │ ├─┬ combined-stream@1.0.5 </tspan>
<tspan x="10" y="650">  │ │ └── delayed-stream@1.0.0 </tspan>
<tspan x="10" y="666">  │ ├── extend@3.0.0 </tspan>
<tspan x="10" y="682">  │ ├── forever-agent@0.6.1 </tspan>
<tspan x="10" y="698">  │ ├─┬ form-data@2.1.2 </tspan>
<tspan x="10" y="714">  │ │ └── asynckit@0.4.0 </tspan>
<tspan x="10" y="730">  │ ├─┬ har-validator@4.2.1 </tspan>
<tspan x="10" y="746">  │ │ ├─┬ ajv@4.11.5 </tspan>
<tspan x="10" y="762">  │ │ │ ├── co@4.6.0 </tspan>
<tspan x="10" y="778">  │ │ │ └─┬ json-stable-stringify@1.0.1 </tspan>
<tspan x="10" y="794">  │ │ │   └── jsonify@0.0.0 </tspan>
<tspan x="10" y="810">  │ │ └── har-schema@1.0.5 </tspan>
<tspan x="10" y="826">  │ ├─┬ hawk@3.1.3 </tspan>
<tspan x="10" y="842">  │ │ ├── boom@2.10.1 </tspan>
<tspan x="10" y="858">  │ │ ├── cryptiles@2.0.5 </tspan>
<tspan x="10" y="874">  │ │ ├── hoek@2.16.3 </tspan>
<tspan x="10" y="890">  │ │ └── sntp@1.0.9 </tspan>
<tspan x="10" y="906">  │ ├─┬ http-signature@1.1.1 </tspan>
<tspan x="10" y="922">  │ │ ├── assert-plus@0.2.0 </tspan>
<tspan x="10" y="938">  │ │ ├─┬ jsprim@1.4.0 </tspan>
<tspan x="10" y="954">  │ │ │ ├── assert-plus@1.0.0 </tspan>
<tspan x="10" y="970">  │ │ │ ├── extsprintf@1.0.2 </tspan>
<tspan x="10" y="986">  │ │ │ ├── json-schema@0.2.3 </tspan>
<tspan x="10" y="1002">  │ │ │ └── verror@1.3.6 </tspan>
<tspan x="10" y="1018">  │ │ └─┬ sshpk@1.11.0 </tspan>
<tspan x="10" y="1034">  │ │   ├── asn1@0.2.3 </tspan>
<tspan x="10" y="1050">  │ │   ├── assert-plus@1.0.0 </tspan>
<tspan x="10" y="1066">  │ │   ├── bcrypt-pbkdf@1.0.1 </tspan>
<tspan x="10" y="1082">  │ │   ├─┬ dashdash@1.14.1 </tspan>
<tspan x="10" y="1098">  │ │   │ └── assert-plus@1.0.0 </tspan>
<tspan x="10" y="1114">  │ │   ├── ecc-jsbn@0.1.1 </tspan>
<tspan x="10" y="1130">  │ │   ├─┬ getpass@0.1.6 </tspan>
<tspan x="10" y="1146">  │ │   │ └── assert-plus@1.0.0 </tspan>
<tspan x="10" y="1162">  │ │   ├── jodid25519@1.0.2 </tspan>
<tspan x="10" y="1178">  │ │   ├── jsbn@0.1.1 </tspan>
<tspan x="10" y="1194">  │ │   └── tweetnacl@0.14.5 </tspan>
<tspan x="10" y="1210">  │ ├── is-typedarray@1.0.0 </tspan>
<tspan x="10" y="1226">  │ ├── isstream@0.1.2 </tspan>
<tspan x="10" y="1242">  │ ├── json-stringify-safe@5.0.1 </tspan>
<tspan x="10" y="1258">  │ ├─┬ mime-types@2.1.15 </tspan>
<tspan x="10" y="1274">  │ │ └── mime-db@1.27.0 </tspan>
<tspan x="10" y="1290">  │ ├── oauth-sign@0.8.2 </tspan>
<tspan x="10" y="1306">  │ ├── performance-now@0.2.0 </tspan>
<tspan x="10" y="1322">  │ ├── qs@6.4.0 </tspan>
<tspan x="10" y="1338">  │ ├── safe-buffer@5.0.1 </tspan>
<tspan x="10" y="1354">  │ ├── stringstream@0.0.5 </tspan>
<tspan x="10" y="1370">  │ ├─┬ tough-cookie@2.3.2 </tspan>
<tspan x="10" y="1386">  │ │ └── punycode@1.4.1 </tspan>
<tspan x="10" y="1402">  │ ├── tunnel-agent@0.6.0 </tspan>
<tspan x="10" y="1418">  │ └── uuid@3.0.1 </tspan>
<tspan x="10" y="1434">  └── walkdir@0.0.7</tspan>
</text>
</svg>
